<svg width="711" height="203" viewBox="0 0 711 203" fill="none" xmlns="http://www.w3.org/2000/svg">
<path fill-rule="evenodd" clip-rule="evenodd" d="M14.3995 12.0859C23.1501 10.8561 31.2408 16.9529 32.4706 25.7034L54.7383 184.146C55.9681 192.897 49.8713 200.988 41.1208 202.217C32.3702 203.447 24.2795 197.35 23.0497 188.6L0.782007 30.157C-0.447804 21.4064 5.64897 13.3157 14.3995 12.0859Z" fill="#6CF0F9"/>
<path fill-rule="evenodd" clip-rule="evenodd" d="M23.0107 42.135C23.0082 42.1359 23.0058 42.1368 23.0033 42.1377C14.7085 45.1635 5.52889 40.8977 2.49446 32.604C-0.541743 24.3054 3.72424 15.1168 12.0228 12.0806L17.4897 27.0228C12.0228 12.0806 12.0273 12.0789 12.0322 12.0772L12.0736 12.0621L12.1596 12.0309C12.2286 12.006 12.3207 11.973 12.4353 11.9322C12.6645 11.8507 12.9836 11.7385 13.3871 11.5994C14.1937 11.3214 15.3394 10.9356 16.7784 10.4742C19.6523 9.55281 23.72 8.32243 28.613 7.04484C38.3028 4.51484 51.6672 1.68321 65.6053 0.845199C79.2374 0.0255826 95.2132 0.987729 108.958 7.61384C123.799 14.7679 134.784 27.9849 137.594 47.9783C140.402 67.9607 133.504 83.7116 121.297 94.753C109.966 105.002 94.9261 110.481 81.6094 113.587C68.0019 116.76 54.3931 117.856 44.3921 118.194C39.3422 118.364 35.0976 118.344 32.084 118.28C30.575 118.247 29.3684 118.204 28.517 118.167C28.0911 118.149 27.7535 118.132 27.5108 118.12C27.3895 118.113 27.2918 118.108 27.2186 118.103L27.1272 118.098L27.0831 118.095C27.078 118.095 27.0732 118.095 28.0636 102.125L27.0732 118.095C18.2535 117.548 11.5473 109.955 12.0943 101.135C12.6409 92.3209 20.2251 85.6174 29.0378 86.1552C29.0386 86.1552 29.0394 86.1553 29.0403 86.1553C29.0405 86.1553 29.0401 86.1553 29.0403 86.1553L29.0463 86.1557C29.0463 86.1557 29.0464 86.1557 29.0463 86.1557M29.054 86.1562L29.0562 86.1562C29.0808 86.1577 29.1291 86.1604 29.2003 86.1641C29.3426 86.1717 29.576 86.1833 29.8943 86.197C30.5311 86.2245 31.5052 86.26 32.7657 86.2868C35.2911 86.3406 38.9412 86.3592 43.3139 86.2118C52.1578 85.9136 63.5051 84.9499 74.3422 82.4228C85.4701 79.8278 94.3634 75.9666 99.8309 71.021C104.423 66.8675 107.189 61.5687 105.905 52.4319C104.623 43.306 100.533 39.0762 95.0628 36.4393C88.4978 33.2746 78.9278 32.102 67.5258 32.7875C56.4297 33.4547 45.2716 35.7681 36.6972 38.0068C32.4583 39.1136 28.9585 40.1736 26.548 40.9464C25.3449 41.3321 24.4191 41.6444 23.8148 41.8527C23.5128 41.9568 23.2917 42.0347 23.1569 42.0827C23.0895 42.1066 23.0438 42.1231 23.0204 42.1315L23.0107 42.135" fill="#6CF0F9"/>
<path fill-rule="evenodd" clip-rule="evenodd" d="M69.1298 87.143C75.5596 81.0814 85.6859 81.38 91.7474 87.8098L152.272 152.011C158.333 158.441 158.035 168.567 151.605 174.629C145.175 180.69 135.049 180.392 128.987 173.962L68.463 109.761C62.4014 103.331 62.7 93.2045 69.1298 87.143Z" fill="#6CF0F9"/>
<path fill-rule="evenodd" clip-rule="evenodd" d="M177.55 16.3233C185.499 12.4634 195.072 15.7783 198.931 23.7272L199.549 24.9982C203.409 32.9472 200.094 42.5201 192.145 46.38C184.196 50.2399 174.623 46.9251 170.763 38.9761L170.146 37.7051C166.286 29.7562 169.601 20.1832 177.55 16.3233Z" fill="#6CF0F9"/>
<path fill-rule="evenodd" clip-rule="evenodd" d="M188.591 62.257C197.344 61.0423 205.424 67.1531 206.639 75.9057L217.8 156.333C219.015 165.086 212.904 173.166 204.152 174.381C195.399 175.595 187.319 169.485 186.104 160.732L174.942 80.3045C173.728 71.5518 179.838 63.4717 188.591 62.257Z" fill="#6CF0F9"/>
<path fill-rule="evenodd" clip-rule="evenodd" d="M300.335 55.853C283.013 58.4572 269.732 73.4032 269.732 91.4511C269.732 109.499 283.013 124.445 300.335 127.049L335.933 91.4511L300.335 55.853ZM241.732 91.4511C241.732 56.1049 270.386 27.4511 305.732 27.4511C309.445 27.4511 313.006 28.9261 315.632 31.5516L365.632 81.5516C371.099 87.019 371.099 95.8833 365.632 101.351L315.632 151.351C313.006 153.976 309.445 155.451 305.732 155.451C270.386 155.451 241.732 126.797 241.732 91.4511Z" fill="#6047FF"/>
<path fill-rule="evenodd" clip-rule="evenodd" d="M411.129 55.853C428.451 58.4572 441.732 73.4032 441.732 91.4511C441.732 109.499 428.451 124.445 411.129 127.049L375.531 91.4511L411.129 55.853ZM469.732 91.4511C469.732 56.1049 441.078 27.4511 405.732 27.4511C402.019 27.4511 398.458 28.9261 395.833 31.5516L345.833 81.5516C340.365 87.019 340.365 95.8833 345.833 101.351L395.833 151.351C398.458 153.976 402.019 155.451 405.732 155.451C441.078 155.451 469.732 126.797 469.732 91.4511Z" fill="#6CF0F9"/>
<path fill-rule="evenodd" clip-rule="evenodd" d="M533.483 16.3233C525.534 12.4634 515.961 15.7783 512.101 23.7272L511.484 24.9982C507.624 32.9472 510.939 42.5201 518.888 46.38C526.837 50.2399 536.41 46.9251 540.27 38.9761L540.887 37.7051C544.747 29.7562 541.432 20.1832 533.483 16.3233Z" fill="#6047FF"/>
<path fill-rule="evenodd" clip-rule="evenodd" d="M522.441 62.257C513.689 61.0423 505.609 67.1531 504.394 75.9057L493.232 156.333C492.018 165.086 498.128 173.166 506.881 174.381C515.634 175.595 523.714 169.485 524.929 160.732L536.09 80.3045C537.305 71.5518 531.194 63.4717 522.441 62.257Z" fill="#6047FF"/>
<path fill-rule="evenodd" clip-rule="evenodd" d="M696.633 12.0859C687.882 10.8561 679.792 16.9529 678.562 25.7034L656.294 184.146C655.064 192.897 661.161 200.988 669.912 202.217C678.662 203.447 686.753 197.35 687.983 188.6L710.251 30.157C711.48 21.4064 705.384 13.3157 696.633 12.0859Z" fill="#6047FF"/>
<path fill-rule="evenodd" clip-rule="evenodd" d="M688.022 42.135C688.024 42.1359 688.027 42.1368 688.029 42.1377C696.324 45.1635 705.504 40.8977 708.538 32.604C711.574 24.3054 707.308 15.1168 699.01 12.0806L693.543 27.0228C699.01 12.0806 699.005 12.0789 699 12.0772L698.959 12.0621L698.873 12.0309C698.804 12.006 698.712 11.973 698.597 11.9322C698.368 11.8507 698.049 11.7385 697.645 11.5994C696.839 11.3214 695.693 10.9356 694.254 10.4742C691.38 9.55281 687.313 8.32243 682.42 7.04484C672.73 4.51484 659.365 1.68321 645.427 0.845199C631.795 0.0255826 615.819 0.987729 602.074 7.61384C587.234 14.7679 576.249 27.9849 573.439 47.9783C570.631 67.9607 577.529 83.7116 589.735 94.753C601.067 105.002 616.106 110.481 629.423 113.587C643.031 116.76 656.639 117.856 666.64 118.194C671.69 118.364 675.935 118.344 678.949 118.28C680.458 118.247 681.664 118.204 682.516 118.167C682.941 118.149 683.279 118.132 683.522 118.12C683.643 118.113 683.741 118.108 683.814 118.103L683.905 118.098L683.949 118.095C683.955 118.095 683.959 118.095 682.969 102.125L683.959 118.095C692.779 117.548 699.485 109.955 698.938 101.135C698.392 92.3209 690.807 85.6174 681.995 86.1552C681.994 86.1552 681.993 86.1553 681.992 86.1553C681.992 86.1553 681.992 86.1553 681.992 86.1553L681.986 86.1557C681.986 86.1557 681.986 86.1557 681.986 86.1557M681.979 86.1562L681.976 86.1562C681.952 86.1577 681.903 86.1604 681.832 86.1641C681.69 86.1717 681.457 86.1833 681.138 86.197C680.501 86.2245 679.527 86.26 678.267 86.2868C675.741 86.3406 672.091 86.3592 667.719 86.2118C658.875 85.9136 647.527 84.9499 636.69 82.4228C625.562 79.8278 616.669 75.9666 611.202 71.021C606.61 66.8675 603.843 61.5687 605.127 52.4319C606.41 43.306 610.5 39.0762 615.97 36.4393C622.535 33.2746 632.105 32.102 643.507 32.7875C654.603 33.4547 665.761 35.7681 674.335 38.0068C678.574 39.1136 682.074 40.1736 684.485 40.9464C685.688 41.3321 686.613 41.6444 687.218 41.8527C687.52 41.9568 687.741 42.0347 687.876 42.0827C687.943 42.1066 687.989 42.1231 688.012 42.1315L688.022 42.135" fill="#6047FF"/>
<path fill-rule="evenodd" clip-rule="evenodd" d="M641.903 87.143C635.473 81.0814 625.347 81.38 619.285 87.8098L558.761 152.011C552.699 158.441 552.998 168.567 559.428 174.629C565.858 180.69 575.984 180.392 582.045 173.962L642.57 109.761C648.631 103.331 648.333 93.2045 641.903 87.143Z" fill="#6047FF"/>
</svg>
