<svg width="48" height="49" viewBox="0 0 48 49" fill="none" xmlns="http://www.w3.org/2000/svg">
<rect y="0.6875" width="48" height="48" rx="8" fill="#2160FD"/>
<path d="M32 15.6875H31V14.6875C31 14.1375 30.55 13.6875 30 13.6875C29.45 13.6875 29 14.1375 29 14.6875V15.6875H19V14.6875C19 14.1375 18.55 13.6875 18 13.6875C17.45 13.6875 17 14.1375 17 14.6875V15.6875H16C14.9 15.6875 14 16.5875 14 17.6875V33.6875C14 34.7875 14.9 35.6875 16 35.6875H32C33.1 35.6875 34 34.7875 34 33.6875V17.6875C34 16.5875 33.1 15.6875 32 15.6875ZM31 33.6875H17C16.45 33.6875 16 33.2375 16 32.6875V20.6875H32V32.6875C32 33.2375 31.55 33.6875 31 33.6875Z" fill="#F5F5F7"/>
</svg>
