<svg width="49" height="49" viewBox="0 0 49 49" fill="none" xmlns="http://www.w3.org/2000/svg">
<rect x="0.666992" y="0.6875" width="48" height="48" rx="8" fill="#2160FD"/>
<g clip-path="url(#clip0_2586_29443)">
<path d="M32.667 18.6875H31.667V26.6875C31.667 27.2375 31.217 27.6875 30.667 27.6875H18.667V28.6875C18.667 29.7875 19.567 30.6875 20.667 30.6875H30.667L34.667 34.6875V20.6875C34.667 19.5875 33.767 18.6875 32.667 18.6875ZM29.667 23.6875V16.6875C29.667 15.5875 28.767 14.6875 27.667 14.6875H16.667C15.567 14.6875 14.667 15.5875 14.667 16.6875V29.6875L18.667 25.6875H27.667C28.767 25.6875 29.667 24.7875 29.667 23.6875Z" fill="#F5F5F7"/>
</g>
<defs>
<clipPath id="clip0_2586_29443">
<rect width="24" height="24" fill="white" transform="translate(12.667 12.6875)"/>
</clipPath>
</defs>
</svg>
