<svg width="49" height="49" viewBox="0 0 49 49" fill="none" xmlns="http://www.w3.org/2000/svg">
<rect x="0.333008" y="0.6875" width="48" height="48" rx="8" fill="#2160FD"/>
<g clip-path="url(#clip0_2586_29433)">
<path d="M34.8327 24.9442C34.8327 18.5392 29.8627 14.1875 24.3327 14.1875C18.861 14.1875 13.8327 18.4458 13.8327 25.0142C13.1327 25.4108 12.666 26.1575 12.666 27.0208V29.3542C12.666 30.6375 13.716 31.6875 14.9993 31.6875C15.641 31.6875 16.166 31.1625 16.166 30.5208V24.9092C16.166 20.4408 19.6077 16.5325 24.076 16.4042C25.1696 16.3709 26.2587 16.5575 27.2789 16.9529C28.299 17.3483 29.2294 17.9444 30.0149 18.706C30.8004 19.4676 31.425 20.3791 31.8518 21.3865C32.2786 22.3939 32.4988 23.4768 32.4993 24.5708V32.8542H24.3327C23.691 32.8542 23.166 33.3792 23.166 34.0208C23.166 34.6625 23.691 35.1875 24.3327 35.1875H32.4993C33.7827 35.1875 34.8327 34.1375 34.8327 32.8542V31.4308C35.521 31.0692 35.9993 30.3575 35.9993 29.5175V26.8342C35.9993 26.0175 35.521 25.3058 34.8327 24.9442Z" fill="#F5F5F7"/>
<path d="M20.8327 27.0208C21.477 27.0208 21.9993 26.4985 21.9993 25.8542C21.9993 25.2098 21.477 24.6875 20.8327 24.6875C20.1884 24.6875 19.666 25.2098 19.666 25.8542C19.666 26.4985 20.1884 27.0208 20.8327 27.0208Z" fill="#F5F5F7"/>
<path d="M27.8327 27.0208C28.477 27.0208 28.9993 26.4985 28.9993 25.8542C28.9993 25.2098 28.477 24.6875 27.8327 24.6875C27.1883 24.6875 26.666 25.2098 26.666 25.8542C26.666 26.4985 27.1883 27.0208 27.8327 27.0208Z" fill="#F5F5F7"/>
<path d="M31.3326 23.5558C31.0544 21.9157 30.2049 20.4268 28.9344 19.3528C27.664 18.2788 26.0545 17.6889 24.3909 17.6875C20.8559 17.6875 17.0526 20.6158 17.3559 25.2125C18.7946 24.6238 20.0652 23.6882 21.0545 22.4892C22.0438 21.2903 22.7211 19.8651 23.0259 18.3408C24.5542 21.4092 27.6926 23.5208 31.3326 23.5558Z" fill="#F5F5F7"/>
</g>
<defs>
<clipPath id="clip0_2586_29433">
<rect width="28" height="28" fill="white" transform="translate(10.333 10.6875)"/>
</clipPath>
</defs>
</svg>
